# AST/ASF file generated using VICON BodyLanguage
# -----------------------------------------------
:version 1.10
:name VICON
:units
  mass 1.0
  length 0.45
  angle deg
:documentation
   .ast/.asf automatically generated from VICON data using
   VICON BodyBuilder and BodyLanguage model FoxedUp or BRILLIANT.MOD
:root
   order TX TY TZ RX RY RZ
   axis XYZ
   position 0 0 0  
   orientation 0 0 0 
:bonedata
  begin
     id 1 
     name lhipjoint
     direction 0.661853 -0.702389 0.261917 
     length 2.64193 
     axis 0 0 0  XYZ
  end
  begin
     id 2 
     name lfemur
     direction 0.34202 -0.939693 0  
     length 7.01722  
     axis 0 0 20  XYZ
    dof rx ry rz
    limits (-160.0 20.0)
           (-70.0 70.0)
           (-60.0 70.0)
  end
  begin
     id 3 
     name ltibia
     direction 0.34202 -0.939693 0   
     length 8.25008   
     axis 0 0 20   XYZ
    dof rx
    limits (-10.0 170.0)
  end
  begin
     id 4 
     name lfoot
     direction 0.0709916 -0.195048 0.978221   
     length 2.31941   
     axis -90 7.62852e-016 20   XYZ
    dof rx rz
    limits (-45.0 90.0)
           (-70.0 20.0)
  end
  begin
     id 5 
     name ltoes
     direction 1.53586e-011 -4.22017e-011 1   
     length 1.16486   
     axis -90 7.62852e-016 20   XYZ
    dof rx
    limits (-90.0 20.0)
  end
  begin
     id 6 
     name rhipjoint
     direction -0.638185 -0.721362 0.268992   
     length 2.57244  
     axis 0 0 0  XYZ 
  end
  begin
     id 7 
     name rfemur
     direction -0.34202 -0.939693 0   
     length 7.07017   
     axis 0 0 -20   XYZ
    dof rx ry rz
    limits (-160.0 20.0)
           (-70.0 70.0)
           (-70.0 60.0)
  end
  begin
     id 8 
     name rtibia
     direction -0.34202 -0.939693 0   
     length 8.20386   
     axis 0 0 -20   XYZ
    dof rx
    limits (-10.0 170.0)
 end
 begin
     id 9 
     name rfoot
     direction -0.0822429 -0.225961 0.970658   
     length 2.32215  
     axis -90 -7.62852e-016 -20   XYZ
    dof rx rz
    limits (-45.0 90.0)
           (-20.0 70.0)
  end
  begin
     id 10 
     name rtoes
     direction -1.53597e-011 -4.21689e-011 1   
     length 1.16333   
     axis -90 -7.62852e-016 -20   XYZ
    dof rx
    limits (-90.0 20.0)
  end
  begin
     id 11 
     name lowerback
     direction -0.0131557 0.998589 -0.0514484   
     length 2.14993   
     axis 0 0 0   XYZ
    dof rx ry rz
    limits (-20.0 45.0)
           (-30.0 30.0)
           (-30.0 30.0)
  end
  begin
     id 12 
     name upperback
     direction -0.000776481 0.999993 0.00352685   
     length 2.15301   
     axis 0 0 0   XYZ
    dof rx ry rz
    limits (-20.0 45.0)
           (-30.0 30.0)
           (-30.0 30.0)
  end
  begin
     id 13 
     name thorax
     direction 0.00438186 0.999609 0.0276143   
     length 2.15424   
     axis 0 0 0   XYZ
    dof rx ry rz
    limits (-20.0 45.0)
           (-30.0 30.0)
           (-30.0 30.0)
  end
  begin
     id 14 
     name lowerneck
     direction -0.0488006 0.998094 0.0377807   
     length 1.90481   
     axis 0 0 0   XYZ
    dof rx ry rz
    limits (-20.0 45.0)
           (-30.0 30.0)
           (-30.0 30.0)
  end
  begin
     id 15 
     name upperneck
     direction 0.0443769 0.990702 -0.12861   
     length 1.91305   
     axis 0 0 0   XYZ
    dof rx ry rz
    limits (-20.0 45.0)
           (-30.0 30.0)
           (-30.0 30.0)
  end
  begin
     id 16
     name head
     direction 0.0165599 0.998647 -0.0492982  
     length 1.92369  
     axis 0 0 0   XYZ
    dof rx ry rz
    limits (-20.0 45.0)
           (-30.0 30.0)
           (-30.0 30.0)
  end
  begin
     id 17 
     name lclavicle
     direction 0.911936 0.410197 -0.0105506  
     length 3.52622  
     axis 0 0 0   XYZ
    dof ry rz
    limits (-20.0 10.0)
           (0.0 20.0)
  end
  begin
     id 18 
     name lhumerus
     direction 1 -4.48974e-011 -2.48591e-028   
     length 5.47651   
     axis 180 -30 -90   XYZ
    dof rx ry rz
    limits (-60.0 90.0)
           (-90.0 90.0)
           (-90.0 90.0)
  end
  begin
     id 19
     name lradius
     direction 1 -4.48938e-011 -4.40099e-027   
     length 3.09058   
     axis 180 -30 -90   XYZ
    dof rx
    limits (-10.0 170.0)
  end
  begin
     id 20
     name lwrist
     direction 1 -4.49042e-011 -2.99852e-027   
     length 1.54529   
     axis 1.95339e-015 90 90   XYZ
    dof ry
    limits (-180.0 0.0)
 end
  begin
     id 21 
     name lhand
     direction 1 -4.48815e-011 -5.98193e-027   
     length 0.771611   
     axis 3.82337e-015 90 90   XYZ
    dof rx rz
    limits (-90.0 90.0)
           (-45.0 45.0)
  end
  begin
     id 22 
     name lfingers
     direction 1 -4.49034e-011 -1.1993e-026   
     length 0.622093   
     axis 7.64668e-015 90 90   XYZ
    dof rx
    limits (0.0 90.0)
  end
  begin
     id 23
     name lthumb
     direction 0.707107 -6.34867e-011 0.707107   
     length 0.893204   
     axis -90 45 -1.62303e-014   XYZ
    dof rx rz
    limits (-45.0 45.0)
           (-45.0 45.0)
  end
  begin
     id 24 
     name rclavicle
     direction -0.93442 0.355634 -0.0195692   
     length 3.62463  
     axis 0 0 0   XYZ 
    dof ry rz
    limits (-10.0 20.0)
           (-20.0 0.0)
  end
  begin
     id 25 
     name rhumerus
     direction -1 -4.48957e-011 -1.19147e-027  
     length 5.14182   
     axis 180 30 90   XYZ
    dof rx ry rz
    limits (-90.0 60.0)
           (-90.0 90.0)
           (-90.0 90.0)
  end
  begin
     id 26 
     name rradius
     direction -1 -4.48952e-011 -3.81062e-027   
     length 3.35565   
     axis 180 30 90   XYZ
    dof rx
    limits (-10.0 170.0)
  end
  begin
     id 27 
     name rwrist
     direction -1 -4.48973e-011 -2.99621e-027   
     length 1.67782   
     axis 1.95339e-015 -90 -90   XYZ
    dof ry
    limits (-180.0 0.0)
  end
  begin
     id 28
     name rhand
     direction -1 -4.48895e-011 -5.98727e-027   
     length 0.801042   
     axis 3.82337e-015 -90 -90   XYZ
    dof rx rz
    limits (-90.0 90.0)
           (-45.0 45.0)
  end
  begin
     id 29
     name rfingers
     direction -1 -4.49065e-011 -1.19972e-026   
     length 0.645821   
     axis 7.64668e-015 -90 -90   XYZ
    dof rx
    limits (0.0 90.0)
  end
  begin
     id 30
     name rthumb
     direction -0.707107 -6.34957e-011 0.707107   
     length 0.927273   
     axis -90 -45 1.62303e-014   XYZ
    dof rx rz
    limits (-45.0 45.0)
           (-45.0 45.0)
  end
:hierarchy
  begin
    root lhipjoint rhipjoint lowerback
    lhipjoint lfemur
    lfemur ltibia
    ltibia lfoot
    lfoot ltoes
    rhipjoint rfemur
    rfemur rtibia
    rtibia rfoot
    rfoot rtoes
    lowerback upperback
    upperback thorax
    thorax lowerneck lclavicle rclavicle
    lowerneck upperneck
    upperneck head
    lclavicle lhumerus
    lhumerus lradius
    lradius lwrist
    lwrist lhand lthumb
    lhand lfingers
    rclavicle rhumerus
    rhumerus rradius
    rradius rwrist
    rwrist rhand rthumb
    rhand rfingers
  end

#!OML:ASF E:\Style4\Style4.ASF
:FULLY-SPECIFIED
:DEGREES
349
root -0.545906 17.4142 -1.22576 2.31008 26.0957 1.85002
lowerback 9.61262 4.53852 2.18845
upperback 2.31665 6.22782 -0.810214
thorax -2.63038 3.09596 -2.77199
lowerneck -3.6188 -3.33651 -4.01961
upperneck 0.457215 -4.36668 5.70295
head 0.999155 -2.12474 2.4085
rclavicle -5.2827e-014 9.14409e-015
rhumerus 69.7154 11.0618 -33.7897
rradius 64.5567
rwrist -43.5235
rhand -37.4517 44.0186
rfingers 7.12502
rthumb -10.5104 14.3014
lclavicle -5.2827e-014 9.14409e-015
lhumerus 63.0227 -12.19 38.9295
lradius 76.1789
lwrist 36.1612
lhand -29.7902 19.0287
lfingers 7.12502
lthumb -3.11486 48.9857
rfemur -17.578 -17.8884 18.9824
rtibia 42.2647
rfoot -26.0509 -22.3335
rtoes -6.21822
lfemur -24.3085 -9.27516 -19.894
ltibia 40.0219
lfoot -16.3116 -1.49924
ltoes -17.2697
350
root -0.539357 17.4154 -1.22514 2.36109 26.0137 1.87893
lowerback 9.60613 4.52789 2.19911
upperback 2.28564 6.21384 -0.83696
thorax -2.6557 3.08804 -2.80505
lowerneck -3.50139 -3.28082 -4.02002
upperneck 0.420948 -4.29369 5.66225
head 0.962092 -2.09078 2.39874
rclavicle 9.36773e-014 -2.22639e-014
rhumerus 69.7474 11.1184 -33.8724
rradius 64.5413
rwrist -43.4307
rhand -37.0917 44.1956
rfingers 7.12502
rthumb -10.1631 14.4611
lclavicle 9.36773e-014 -2.22639e-014
lhumerus 62.849 -12.185 38.8156
lradius 76.2966
lwrist 35.7691
lhand -30.2936 18.8324
lfingers 7.12502
lthumb -3.601 48.7818
rfemur -17.6175 -17.9108 18.9451
rtibia 42.3039
rfoot -26.003 -22.1807
rtoes -6.34417
lfemur -24.3288 -9.22808 -19.9427
ltibia 40.0308
lfoot -16.3923 -1.34279
ltoes -18.0139
351
root -0.533958 17.4172 -1.22486 2.40354 25.928 1.87917
lowerback 9.587 4.50227 2.19771
upperback 2.2665 6.17921 -0.839765
thorax -2.66698 3.07029 -2.80287
lowerneck -3.49862 -3.21496 -3.9866
upperneck 0.447135 -4.20668 5.57443
head 0.961882 -2.04819 2.36569
rclavicle 7.36994e-014 -9.54166e-015
rhumerus 69.843 11.1927 -33.8834
rradius 64.5877
rwrist -43.3895
rhand -36.8628 44.2351
rfingers 7.12502
rthumb -9.9423 14.4899
lclavicle 7.36994e-014 -9.54166e-015
lhumerus 62.6423 -12.1232 38.6731
lradius 76.4181
lwrist 35.41
lhand -30.6757 18.668
lfingers 7.12502
lthumb -3.97001 48.6108
rfemur -17.6498 -17.9499 18.9582
rtibia 42.3431
rfoot -25.8752 -21.9975
rtoes -6.30062
lfemur -24.3453 -9.20137 -19.9481
ltibia 40.0232
lfoot -16.3193 -1.44775
ltoes -17.0735
352
root -0.528918 17.4173 -1.22513 2.44733 25.8434 1.94699
lowerback 9.57634 4.47956 2.11833
upperback 2.27795 6.1411 -0.836323
thorax -2.66033 3.05193 -2.75012
lowerneck -3.49151 -3.15284 -3.98912
upperneck 0.445503 -4.12267 5.50995
head 0.953989 -2.00716 2.347
rclavicle -1.51474e-013 3.02153e-014
rhumerus 69.9701 11.227 -33.8182
rradius 64.7331
rwrist -43.3724
rhand -36.824 44.2512
rfingers 7.12502
rthumb -9.90484 14.5042
lclavicle -1.51474e-013 3.02153e-014
lhumerus 62.4881 -11.9926 38.6246
lradius 76.5388
lwrist 35.4139
lhand -30.6669 18.5328
lfingers 7.12502
lthumb -3.96148 48.4757
rfemur -17.6779 -17.9267 18.8726
rtibia 42.3566
rfoot -25.8469 -21.9888
rtoes -6.44007
lfemur -24.3278 -9.20091 -20.0247
ltibia 40.0148
lfoot -16.2561 -1.49295
ltoes -16.2235
353
root -0.524838 17.4164 -1.22422 2.45508 25.7836 1.98159
lowerback 9.57673 4.48241 2.08002
upperback 2.30073 6.14144 -0.822866
thorax -2.64242 3.05288 -2.71403
lowerneck -3.53807 -3.13708 -4.00605
upperneck 0.531255 -4.10176 5.45144
head 0.987028 -1.99643 2.33035
rclavicle -3.86139e-014 2.78299e-015
rhumerus 70.0217 11.1987 -33.6866
rradius 64.8643
rwrist -43.4143
rhand -36.785 44.406
rfingers 7.12502
rthumb -9.86725 14.6572
lclavicle -3.86139e-014 2.78299e-015
lhumerus 62.4288 -11.9191 38.5675
lradius 76.6137
lwrist 35.4726
lhand -30.6664 18.3106
lfingers 7.12502
lthumb -3.96096 48.2536
rfemur -17.6893 -17.8266 18.8003
rtibia 42.326
rfoot -25.9587 -22.0956
rtoes -6.38727
lfemur -24.3026 -9.21694 -20.0682
ltibia 40.0175
lfoot -16.2818 -1.44612
ltoes -16.2129
354
root -0.519607 17.4174 -1.22138 2.4969 25.7159 1.97609
lowerback 9.48279 4.50275 2.09444
upperback 2.31501 6.16859 -0.808492
thorax -2.57438 3.06787 -2.70044
lowerneck -3.56897 -3.1424 -4.04356
upperneck 0.613153 -4.10876 5.41364
head 1.01871 -1.99976 2.32383
rclavicle -1.74931e-014 1.59028e-015
rhumerus 70.0287 11.176 -33.5102
rradius 64.9677
rwrist -43.3345
rhand -36.8165 44.6249
rfingers 7.12502
rthumb -9.89766 14.8775
lclavicle -1.74931e-014 1.59028e-015
lhumerus 62.3929 -11.8822 38.5323
lradius 76.6937
lwrist 35.4748
lhand -30.6074 18.2532
lfingers 7.12502
lthumb -3.90398 48.1972
rfemur -17.7305 -17.7922 18.7918
rtibia 42.2815
rfoot -25.981 -22.1716
rtoes -6.69504
lfemur -24.333 -9.16467 -20.0795
ltibia 40.0239
lfoot -16.3069 -1.36204
ltoes -16.7712
355
root -0.514051 17.4187 -1.22092 2.53813 25.68 1.94083
lowerback 9.37522 4.46223 2.11109
upperback 2.32165 6.11571 -0.765954
thorax -2.51435 3.04269 -2.65014
lowerneck -3.55302 -3.10359 -4.12072
upperneck 0.657886 -4.05557 5.39989
head 1.02911 -1.97375 2.33477
rclavicle -7.59357e-014 1.19271e-014
rhumerus 70.1558 11.2304 -33.2895
rradius 65.0826
rwrist -43.3515
rhand -36.8181 44.8112
rfingers 7.12502
rthumb -9.89913 15.0639
lclavicle -7.59357e-014 1.19271e-014
lhumerus 62.2291 -11.7512 38.5124
lradius 76.7695
lwrist 35.4516
lhand -30.5977 18.2242
lfingers 7.12502
lthumb -3.89464 48.1683
rfemur -17.7778 -17.7937 18.8219
rtibia 42.2389
rfoot -25.9116 -22.166
rtoes -6.8884
lfemur -24.3897 -9.16569 -20.0548
ltibia 40.0331
lfoot -16.3352 -1.3057
ltoes -16.815
356
root -0.510954 17.4191 -1.22213 2.57527 25.6343 1.97522
lowerback 9.3467 4.43023 2.05582
upperback 2.31469 6.06799 -0.746736
thorax -2.51654 3.01893 -2.59301
lowerneck -3.52378 -3.05303 -4.19462
upperneck 0.725761 -3.98861 5.41506
head 1.04457 -1.94058 2.35517
rclavicle 5.60573e-014 -1.07344e-014
rhumerus 70.2379 11.2972 -33.152
rradius 65.158
rwrist -43.354
rhand -36.7614 44.8064
rfingers 7.12502
rthumb -9.84442 15.0565
lclavicle 5.60573e-014 -1.07344e-014
lhumerus 62.0587 -11.6561 38.5215
lradius 76.8611
lwrist 35.4728
lhand -30.5163 18.2196
lfingers 7.12502
lthumb -3.816 48.1652
rfemur -17.8181 -17.7559 18.7876
rtibia 42.2363
rfoot -25.8264 -22.1901
rtoes -7.07436
lfemur -24.4001 -9.18127 -20.091
ltibia 40.0244
lfoot -16.3693 -1.28808
ltoes -16.4737
357
root -0.508298 17.4191 -1.22297 2.55891 25.5612 2.01204
lowerback 9.39736 4.43795 2.01663
upperback 2.30752 6.07561 -0.736249
thorax -2.55669 3.02191 -2.56657
lowerneck -3.51531 -3.03083 -4.2221
upperneck 0.829125 -3.96147 5.39862
head 1.07487 -1.92708 2.35528
rclavicle 1.82385e-014 -3.97569e-015
rhumerus 70.2326 11.3203 -33.0327
rradius 65.2113
rwrist -43.3386
rhand -36.7237 44.8167
rfingers 7.12502
rthumb -9.80805 15.0651
lclavicle 1.82385e-014 -3.97569e-015
lhumerus 61.9516 -11.6308 38.5465
lradius 76.9461
lwrist 35.5062
lhand -30.3977 18.1931
lfingers 7.12502
lthumb -3.70153 48.1407
rfemur -17.8063 -17.6883 18.731
rtibia 42.2644
rfoot -25.8207 -22.1785
rtoes -7.07857
lfemur -24.3472 -9.16202 -20.1437
ltibia 40.0138
lfoot -16.3968 -1.2487
ltoes -16.4284
358
root -0.504935 17.4197 -1.22257 2.56285 25.5154 2.04727
lowerback 9.39669 4.43994 1.98649
upperback 2.30687 6.07549 -0.73095
thorax -2.56074 3.02185 -2.54456
lowerneck -3.50186 -2.9981 -4.26763
upperneck 0.906722 -3.91925 5.40978
head 1.09658 -1.90596 2.36838
rclavicle -9.49197e-015 -1.47101e-014
rhumerus 70.2431 11.3343 -32.9443
rradius 65.2438
rwrist -43.2827
rhand -36.7094 44.7577
rfingers 7.12502
rthumb -9.79429 15.0055
lclavicle -9.49197e-015 -1.47101e-014
lhumerus 61.8595 -11.6072 38.5841
lradius 76.9772
lwrist 35.4617
lhand -30.3083 18.143
lfingers 7.12502
lthumb -3.61523 48.0921
rfemur -17.823 -17.6651 18.6827
rtibia 42.3243
rfoot -25.6951 -22.2302
rtoes -7.49161
lfemur -24.3098 -9.14659 -20.195
ltibia 39.9873
lfoot -16.4116 -1.22605
ltoes -16.4758
359
root -0.501876 17.4191 -1.22208 2.56545 25.5023 2.01572
lowerback 9.36681 4.43536 2.03026
upperback 2.30597 6.07342 -0.719288
thorax -2.54206 3.02098 -2.55371
lowerneck -3.54385 -2.98558 -4.29661
upperneck 0.987463 -3.90315 5.42914
head 1.13018 -1.8969 2.37988
rclavicle -8.49804e-015 1.39149e-014
rhumerus 70.245 11.326 -32.8516
rradius 65.2873
rwrist -43.2638
rhand -36.7045 44.7576
rfingers 7.12502
rthumb -9.78951 15.0052
lclavicle -8.49804e-015 1.39149e-014
lhumerus 61.788 -11.5967 38.5996
lradius 77.028
lwrist 35.418
lhand -30.2597 18.0832
lfingers 7.12502
lthumb -3.56829 48.0331
rfemur -17.8457 -17.7019 18.7235
rtibia 42.3874
rfoot -25.5393 -22.1644
rtoes -7.78627
lfemur -24.3105 -9.12703 -20.1707
ltibia 39.9663
lfoot -16.4061 -1.20661
ltoes -16.6289
360
root -0.498352 17.4197 -1.22111 2.59145 25.5107 2.05015
lowerback 9.34133 4.4285 2.02575
upperback 2.29558 6.06301 -0.736496
thorax -2.53796 3.01583 -2.56609
lowerneck -3.51487 -2.99512 -4.29516
upperneck 1.00946 -3.9183 5.45577
head 1.13365 -1.9044 2.38836
rclavicle -3.35946e-014 -3.97569e-015
rhumerus 70.2173 11.323 -32.8455
rradius 65.2934
rwrist -43.2062
rhand -36.6858 44.726
rfingers 7.12502
rthumb -9.77156 14.9727
lclavicle -3.35946e-014 -3.97569e-015
lhumerus 61.7379 -11.6274 38.5956
lradius 77.0438
lwrist 35.2802
lhand -30.2991 18.1008
lfingers 7.12502
lthumb -3.60632 48.05
rfemur -17.8377 -17.7933 18.6859
rtibia 42.4493
rfoot -25.697 -21.8579
rtoes -6.895
lfemur -24.2976 -9.13529 -20.211
ltibia 39.9442
lfoot -16.3744 -1.26104
ltoes -16.2516
361
root -0.494656 17.422 -1.22092 2.58555 25.5307 2.05225
lowerback 9.35479 4.40863 2.04608
upperback 2.27066 6.03867 -0.743304
thorax -2.56972 3.00272 -2.58439
lowerneck -3.46437 -3.0018 -4.29576
upperneck 1.05476 -3.93129 5.49189
head 1.141 -1.9109 2.40063
rclavicle -8.84592e-015 -9.14409e-015
rhumerus 70.1624 11.3657 -32.8882
rradius 65.2956
rwrist -43.0706
rhand -36.6813 44.7571
rfingers 7.12502
rthumb -9.76719 15.0036
lclavicle -8.84592e-015 -9.14409e-015
lhumerus 61.6491 -11.6789 38.5909
lradius 77.071
lwrist 35.1539
lhand -30.382 18.2359
lfingers 7.12502
lthumb -3.68634 48.1838
rfemur -17.8092 -17.845 18.6688
rtibia 42.4637
rfoot -25.7751 -21.748
rtoes -6.63408
lfemur -24.2762 -9.16401 -20.2289
ltibia 39.9313
lfoot -16.3639 -1.22176
ltoes -16.2502
362
root -0.492472 17.4228 -1.21972 2.5823 25.5355 2.05272
lowerback 9.34209 4.38429 2.03499
upperback 2.262 6.00528 -0.738101
thorax -2.57531 2.98592 -2.56888
lowerneck -3.42557 -2.98323 -4.30749
upperneck 1.06807 -3.90866 5.53456
head 1.13879 -1.89956 2.41799
rclavicle 6.40087e-014 -3.02153e-014
rhumerus 70.1751 11.4252 -32.929
rradius 65.2658
rwrist -42.9563
rhand -36.6758 44.7343
rfingers 7.12502
rthumb -9.76187 14.9805
lclavicle 6.40087e-014 -3.02153e-014
lhumerus 61.5508 -11.6647 38.6094
lradius 77.0738
lwrist 35.1032
lhand -30.2348 18.2018
lfingers 7.12502
lthumb -3.54416 48.1521
rfemur -17.7763 -17.8248 18.6613
rtibia 42.4227
rfoot -25.7256 -21.7829
rtoes -6.74321
lfemur -24.2671 -9.17001 -20.2377
ltibia 39.924
lfoot -16.3932 -1.14644
ltoes -16.8066
363
root -0.491132 17.4247 -1.21696 2.5928 25.5361 2.01345
lowerback 9.28838 4.376 2.0383
upperback 2.25545 5.99444 -0.711907
thorax -2.55564 2.98076 -2.53822
lowerneck -3.43859 -2.97964 -4.35999
upperneck 1.09457 -3.90355 5.59833
head 1.1525 -1.89611 2.44879
rclavicle -3.34455e-014 8.74653e-015
rhumerus 70.1837 11.4523 -32.9212
rradius 65.2354
rwrist -42.9013
rhand -36.6895 44.8038
rfingers 7.12502
rthumb -9.77505 15.0506
lclavicle -3.34455e-014 8.74653e-015
lhumerus 61.4993 -11.6519 38.6571
lradius 77.0738
lwrist 35.0636
lhand -30.1304 18.1224
lfingers 7.12502
lthumb -3.44336 48.0743
rfemur -17.7591 -17.7576 18.6992
rtibia 42.3209
rfoot -25.7691 -21.8711
rtoes -6.60211
lfemur -24.2863 -9.17938 -20.1959
ltibia 39.9274
lfoot -16.4504 -1.08623
ltoes -17.2146
